<svg xmlns="http://www.w3.org/2000/svg" width="270.792" height="264.026" viewBox="0 0 270.792 264.026">
  <path id="github-brands" d="M90.573,220.593c0,1.092-1.256,1.965-2.839,1.965-1.8.164-3.057-.71-3.057-1.965,0-1.092,1.256-1.965,2.839-1.965C89.154,218.464,90.573,219.337,90.573,220.593Zm-16.979-2.457c-.382,1.092.71,2.348,2.348,2.675,1.419.546,3.057,0,3.385-1.092s-.71-2.348-2.348-2.839c-1.419-.382-3,.164-3.385,1.256Zm24.131-.928c-1.583.382-2.675,1.419-2.511,2.675.164,1.092,1.583,1.8,3.221,1.419,1.583-.382,2.675-1.419,2.511-2.511C100.782,217.754,99.308,217.044,97.725,217.208ZM133.649,8C57.925,8,0,65.489,0,141.212,0,201.758,38.107,253.569,92.539,271.8c6.988,1.256,9.445-3.057,9.445-6.606,0-3.385-.164-22.056-.164-33.521,0,0-38.217,8.189-46.242-16.269,0,0-6.224-15.887-15.177-19.982,0,0-12.5-8.571.874-8.408A28.818,28.818,0,0,1,62.348,201.1c11.956,21.074,31.993,15.014,39.8,11.41,1.256-8.735,4.8-14.8,8.735-18.4-30.519-3.385-61.31-7.807-61.31-60.328,0-15.014,4.149-22.548,12.884-32.156-1.419-3.549-6.06-18.18,1.419-37.07C75.287,61.012,101.547,79.3,101.547,79.3a128.976,128.976,0,0,1,68.571,0s26.26-18.344,37.671-14.741c7.48,18.944,2.839,33.521,1.419,37.07,8.735,9.663,14.086,17.2,14.086,32.156,0,52.684-32.156,56.888-62.675,60.328,5.023,4.313,9.281,12.5,9.281,25.332,0,18.4-.164,41.165-.164,45.641,0,3.549,2.511,7.862,9.445,6.606,54.6-18.126,91.611-69.936,91.611-130.482C270.792,65.489,209.372,8,133.649,8ZM53.066,196.3c-.71.546-.546,1.8.382,2.839.874.874,2.129,1.256,2.839.546.71-.546.546-1.8-.382-2.839C55.032,195.971,53.776,195.589,53.066,196.3Zm-5.9-4.422c-.382.71.164,1.583,1.256,2.129a1.624,1.624,0,0,0,2.348-.382c.382-.71-.164-1.583-1.256-2.129C48.426,191.166,47.552,191.33,47.17,191.876Zm17.689,19.436c-.874.71-.546,2.348.71,3.385,1.256,1.256,2.839,1.419,3.549.546.71-.71.382-2.348-.71-3.385C67.207,210.6,65.569,210.438,64.859,211.312Zm-6.224-8.025c-.874.546-.874,1.965,0,3.221s2.348,1.8,3.057,1.256c.874-.71.874-2.129,0-3.385-.764-1.256-2.184-1.8-3.057-1.092Z" transform="translate(0 -8)" fill="#fff"/>
</svg>
