<svg xmlns="http://www.w3.org/2000/svg" width="330.032" height="264.026" viewBox="0 0 330.032 264.026">
  <path id="laptop-code-solid" d="M131.513,134.926a8.251,8.251,0,0,0,11.67,0l5.832-5.832a8.251,8.251,0,0,0,0-11.67L130.595,99.01,149.01,80.59a8.251,8.251,0,0,0,0-11.67l-5.832-5.832a8.251,8.251,0,0,0-11.67,0L101.423,93.172a8.251,8.251,0,0,0,0,11.67Zm49.51-5.827,5.832,5.832a8.251,8.251,0,0,0,11.67,0l30.085-30.084a8.251,8.251,0,0,0,0-11.67L198.525,63.093a8.251,8.251,0,0,0-11.67,0l-5.832,5.832a8.251,8.251,0,0,0,0,11.67L199.437,99.01l-18.415,18.42A8.251,8.251,0,0,0,181.023,129.1Zm140.759,85.422H196.751c-.382,10.216-7.586,16.5-16.883,16.5H148.515c-9.638,0-17.028-9.009-16.9-16.5H8.251A8.275,8.275,0,0,0,0,222.772v8.251a33.1,33.1,0,0,0,33,33H297.029a33.1,33.1,0,0,0,33-33v-8.251A8.275,8.275,0,0,0,321.781,214.521ZM297.029,24.752A24.825,24.825,0,0,0,272.277,0H57.756A24.825,24.825,0,0,0,33,24.752V198.019H297.029Zm-33,140.264H66.006V33H264.026Z" fill="#fff"/>
</svg>
