<svg xmlns="http://www.w3.org/2000/svg" width="325.143" height="264.076" viewBox="0 0 325.143 264.076">
  <path id="twitter-brands" d="M291.722,113.895c.206,2.888.206,5.777.206,8.665,0,88.094-67.05,189.6-189.6,189.6A188.313,188.313,0,0,1,0,282.244a137.857,137.857,0,0,0,16.092.825,133.456,133.456,0,0,0,82.73-28.47,66.756,66.756,0,0,1-62.306-46.214A84.037,84.037,0,0,0,49.1,209.416a70.48,70.48,0,0,0,17.536-2.269,66.647,66.647,0,0,1-53.435-65.4v-.825a67.111,67.111,0,0,0,30.121,8.458A66.737,66.737,0,0,1,22.693,60.254a189.416,189.416,0,0,0,137.4,69.733,75.228,75.228,0,0,1-1.65-15.267A66.7,66.7,0,0,1,273.772,69.126a131.2,131.2,0,0,0,42.294-16.092,66.458,66.458,0,0,1-29.3,36.723,133.59,133.59,0,0,0,38.373-10.315,143.245,143.245,0,0,1-33.421,34.453Z" transform="translate(0 -48.082)" fill="#fff"/>
</svg>
